####
#
# OBJ File Generated by Meshlab
#
####
# Object test.obj
#
# Vertices: 21
# Faces: 38
#
####
vn 1.333580 2.560772 2.250276
v 0.781426 1.454255 1.305012 0.752941 0.752941 0.752941
vn 3.987382 0.666339 2.590853
v 1.476685 0.230913 1.132841 0.752941 0.752941 0.752941
vn 2.057217 1.883235 -1.658049
v 1.350757 1.260385 -1.057020 0.752941 0.752941 0.752941
vn -4.177714 2.917802 0.679970
v -1.290734 1.347981 0.077986 0.752941 0.752941 0.752941
vn -1.703757 2.742016 2.479023
v -0.785160 1.411902 1.206624 0.752941 0.752941 0.752941
vn -2.089146 2.958220 -1.488387
v -1.173574 1.496774 -0.845229 0.752941 0.752941 0.752941
vn -2.748763 -0.990684 -2.414145
v -1.439931 -0.126895 -1.310712 0.752941 0.752941 0.752941
vn -0.402638 1.360894 6.065901
v -0.187087 1.295505 1.292429 0.752941 0.752941 0.752941
vn -2.394699 -0.590377 2.808618
v -1.344183 -1.026579 1.499981 0.752941 0.752941 0.752941
vn 1.938856 -1.725509 1.423837
v 1.493397 -1.337827 1.111620 0.752941 0.752941 0.752941
vn 2.431947 -1.347340 -3.157238
v 1.170698 -0.453321 -1.307486 0.752941 0.752941 0.752941
vn -0.150737 -4.321335 -3.569442
v 0.281677 -0.958883 -1.010605 0.752941 0.752941 0.752941
vn -0.799632 2.939051 -5.237322
v -0.887014 1.169867 -1.123595 0.752941 0.752941 0.752941
vn -1.475224 0.687928 -5.151207
v -1.075192 0.320907 -1.451098 0.752941 0.752941 0.752941
vn 0.560467 0.381217 -6.143321
v 0.503171 0.094819 -1.382159 0.752941 0.752941 0.752941
vn 2.695001 -3.164191 -1.083406
v 1.350312 -1.342412 0.064690 0.752941 0.752941 0.752941
vn -1.676810 -2.444056 1.136553
v -1.283014 -1.487515 1.269207 0.752941 0.752941 0.752941
vn -2.850975 -4.354728 -1.809645
v -1.190486 -1.121774 -0.013668 0.752941 0.752941 0.752941
vn 0.978778 0.194631 6.055885
v 0.697963 0.469691 1.402215 0.752941 0.752941 0.752941
vn 1.902730 -0.123848 5.981921
v 1.076029 -0.181320 1.271909 0.752941 0.752941 0.752941
vn 0.534693 6.243292 -0.439344
v -0.019251 1.418325 -0.622450 0.752941 0.752941 0.752941
# 21 vertices, 0 vertices normals

f 1//1 2//2 3//3
f 4//4 5//5 6//6
f 7//7 4//4 6//6
f 8//8 9//9 1//1
f 8//8 1//1 5//5
f 8//8 5//5 9//9
f 10//10 3//3 2//2
f 11//11 12//12 7//7
f 13//13 14//14 6//6
f 13//13 6//6 3//3
f 13//13 3//3 14//14
f 14//14 7//7 6//6
f 14//14 11//11 7//7
f 15//15 14//14 3//3
f 15//15 3//3 11//11
f 15//15 11//11 14//14
f 11//11 16//16 12//12
f 11//11 3//3 16//16
f 16//16 3//3 10//10
f 16//16 10//10 17//17
f 16//16 17//17 12//12
f 18//18 12//12 17//17
f 18//18 17//17 7//7
f 18//18 7//7 12//12
f 10//10 9//9 17//17
f 10//10 19//19 9//9
f 20//20 10//10 2//2
f 20//20 2//2 19//19
f 20//20 19//19 10//10
f 19//19 2//2 1//1
f 19//19 1//1 9//9
f 9//9 5//5 4//4
f 9//9 7//7 17//17
f 9//9 4//4 7//7
f 21//21 6//6 1//1
f 21//21 1//1 3//3
f 21//21 3//3 6//6
f 6//6 5//5 1//1
# 38 faces, 0 coords texture

# End of File
